<?xml version="1.0" standalone="no"?>
<!DOCTYPE svg PUBLIC "-//W3C//DTD SVG 1.1//EN" "http://www.w3.org/Graphics/SVG/1.1/DTD/svg11.dtd" >
<!--
2013-9-30: Created.
-->
<svg>
<metadata>
Created by iconfont
</metadata>
<defs>

<font id="iconfont" horiz-adv-x="1024" >
  <font-face
    font-family="iconfont"
    font-weight="500"
    font-stretch="normal"
    units-per-em="1024"
    ascent="896"
    descent="-128"
  />
    <missing-glyph />
    
    <glyph glyph-name="bianji" unicode="&#58898;" d="M272.46 225.86c-9.11 0-18.06 3.56-24.76 10.25a35.004 35.004 0 0 0-7.77 37.7l63.31 158.9c5.31 13.33 13.15 25.24 23.3 35.4l287.82 287.82c32.37 32.37 85.05 32.37 117.42 0l35.73-35.73c32.37-32.37 32.37-85.05 0-117.42L479.7 314.96c-10.15-10.15-22.06-17.99-35.4-23.31l-158.9-63.31c-4.2-1.66-8.59-2.48-12.94-2.48z m400.62 484.39c-3.34 0-6.67-1.27-9.21-3.81L376.05 418.61c-3.39-3.39-6-7.36-7.77-11.81l-33.19-83.31 83.31 33.19a34.92 34.92 0 0 1 11.81 7.77l287.82 287.82c3.32 3.32 3.82 7.2 3.82 9.21s-0.5 5.89-3.82 9.21l-35.73 35.73a12.936 12.936 0 0 1-9.22 3.83zM681.42 531.19c-8.96 0-17.91 3.42-24.75 10.25L553.02 645.09c-13.67 13.67-13.67 35.83 0 49.5 13.67 13.67 35.83 13.67 49.5 0l103.65-103.65c13.67-13.67 13.67-35.83 0-49.5-6.83-6.84-15.79-10.25-24.75-10.25zM836.06 96.75H189.94c-19.33 0-35 15.67-35 35s15.67 35 35 35h646.12c19.33 0 35-15.67 35-35s-15.67-35-35-35z"  horiz-adv-x="1024" />

    
    <glyph glyph-name="jichuleibaobiao" unicode="&#58899;" d="M826.97 27.63H249.02c-56.45 0-102.38 48.94-102.38 109.1V731.9c0 19.33 15.67 35 35 35s35-15.67 35-35v-595.17c0-21.56 14.53-39.1 32.38-39.1h577.95c19.33 0 35-15.67 35-35s-15.67-35-35-35zM382.07 169.37c-19.33 0-35 15.67-35 35V611.6c0 19.33 15.67 35 35 35s35-15.67 35-35v-407.23c0-19.33-15.67-35-35-35zM584.48 169.37c-19.33 0-35 15.67-35 35V492.9c0 19.33 15.67 35 35 35s35-15.67 35-35v-288.53c0-19.33-15.67-35-35-35zM795.55 169.37c-19.33 0-35 15.67-35 35V680.29c0 19.33 15.67 35 35 35s35-15.67 35-35v-475.92c0-19.33-15.67-35-35-35z"  horiz-adv-x="1024" />

    
    <glyph glyph-name="guanlian-jiantou" unicode="&#58900;" d="M511.33 305.01c-9.28 0-18.19 3.69-24.75 10.25l-310.2 310.21c-13.67 13.67-13.67 35.83 0 49.5 13.67 13.67 35.83 13.67 49.5 0l285.46-285.46L796.8 674.97c13.67 13.67 35.83 13.67 49.5 0 13.67-13.67 13.67-35.83 0-49.5L536.08 315.26a34.998 34.998 0 0 0-24.75-10.25zM511.33-7.31c-9.28 0-18.19 3.69-24.75 10.25l-310.2 310.21c-13.67 13.67-13.67 35.83 0 49.5 13.67 13.67 35.83 13.67 49.5 0l285.46-285.46L796.8 362.65c13.67 13.67 35.83 13.67 49.5 0 13.67-13.67 13.67-35.83 0-49.5L536.08 2.94a34.998 34.998 0 0 0-24.75-10.25z"  horiz-adv-x="1024" />

    
    <glyph glyph-name="biyan" unicode="&#58901;" d="M940.9 361.71l-90.93 63.67c28.14 49.08 45.44 104.02 50.21 161.43 1.6 19.26-12.72 36.18-31.98 37.78-19.25 1.6-36.18-12.72-37.78-31.98-6.64-79.9-42.85-154-101.96-208.67-59.43-54.97-136.78-85.24-217.79-85.24-81.01 0-158.36 30.27-217.79 85.24-59.11 54.66-95.31 128.77-101.95 208.67-1.6 19.26-18.51 33.57-37.78 31.98-19.26-1.6-33.58-18.51-31.98-37.78 4.79-57.6 22.17-112.71 50.47-161.91l-90.26-63.2c-15.83-11.09-19.68-32.91-8.6-48.75 6.81-9.72 17.67-14.93 28.7-14.93 6.93 0 13.94 2.05 20.04 6.33l90.32 63.25a392.477 392.477 0 0 1 33.5-35.06c29.79-27.55 63.29-50 99.26-66.89L306.91 162.1c-6.61-18.16 2.75-38.25 20.92-44.86 3.95-1.44 7.99-2.12 11.97-2.12 14.3 0 27.72 8.83 32.89 23.04l37.69 103.55c32.41-8.58 66.07-13.02 100.28-13.02 34.51 0 68.46 4.52 101.14 13.25l37.78-103.79c5.17-14.21 18.59-23.04 32.89-23.04 3.97 0 8.02 0.68 11.97 2.12 18.16 6.61 27.53 26.7 20.92 44.86l-37.82 103.92c35.67 16.85 68.88 39.17 98.45 66.52a394.328 394.328 0 0 1 33.85 35.48l90.92-63.66a34.816 34.816 0 0 1 20.04-6.33c11.03 0 21.89 5.2 28.7 14.93 11.09 15.85 7.24 37.67-8.6 48.76z"  horiz-adv-x="1024" />

    
    <glyph glyph-name="jianshao" unicode="&#58902;" d="M745.13 348.05H278.66c-19.33 0-35 15.67-35 35s15.67 35 35 35h466.46c19.33 0 35-15.67 35-35 0.01-19.33-15.66-35-34.99-35zM511.9-61.95c-60.06 0-118.34 11.77-173.23 34.98-52.99 22.42-100.58 54.5-141.44 95.35-40.86 40.86-72.94 88.44-95.35 141.44C78.67 264.7 66.9 322.99 66.9 383.04s11.77 118.34 34.98 173.23c22.42 52.99 54.5 100.58 95.35 141.44 40.86 40.86 88.44 72.94 141.44 95.35 54.88 23.21 113.17 34.98 173.22 34.98s118.34-11.77 173.23-34.98c52.99-22.41 100.58-54.5 141.44-95.35 40.86-40.86 72.94-88.44 95.35-141.44 23.21-54.88 34.98-113.17 34.98-173.22 0-60.06-11.77-118.34-34.98-173.23-22.42-52.99-54.5-100.58-95.35-141.44-40.86-40.86-88.44-72.94-141.44-95.35-54.88-23.21-113.17-34.98-173.22-34.98z m0 820c-100.17 0-194.34-39.01-265.17-109.83s-109.83-165-109.83-265.16c0-100.17 39.01-194.34 109.83-265.17 70.83-70.83 165-109.83 265.16-109.83 100.17 0 194.34 39.01 265.16 109.83s109.83 165 109.83 265.17c0 100.17-39.01 194.34-109.83 265.17S612.06 758.05 511.9 758.05z"  horiz-adv-x="1024" />

    
    <glyph glyph-name="dingdanguanli" unicode="&#58903;" d="M745.54 22.96h-470.3c-51.43 0-93.27 41.84-93.27 93.27V650.34c0 51.43 41.84 93.27 93.27 93.27h88.91c19.33 0 35-15.67 35-35s-15.67-35-35-35h-88.91c-12.83 0-23.27-10.44-23.27-23.27v-534.11c0-12.83 10.44-23.27 23.27-23.27h470.3c12.83 0 23.27 10.44 23.27 23.27V650.34c0 12.83-10.44 23.27-23.27 23.27h-88.91c-19.33 0-35 15.67-35 35s15.67 35 35 35h88.91c51.43 0 93.27-41.84 93.27-93.27v-534.11c0-51.43-41.84-93.27-93.27-93.27zM619.09 613.48h-217.4c-40 0-72.54 32.54-72.54 72.54v48.09c0 40 32.54 72.54 72.54 72.54h217.4c40 0 72.54-32.54 72.54-72.54v-48.09c0-40-32.55-72.54-72.54-72.54z m-217.4 123.17c-1.4 0-2.54-1.14-2.54-2.54v-48.09c0-1.4 1.14-2.54 2.54-2.54h217.4c1.4 0 2.54 1.14 2.54 2.54v48.09c0 1.4-1.14 2.54-2.54 2.54h-217.4zM675.38 422.19H345.4c-19.33 0-35 15.67-35 35s15.67 35 35 35h329.99c19.33 0 35-15.67 35-35s-15.68-35-35.01-35zM675.38 280.89H345.4c-19.33 0-35 15.67-35 35s15.67 35 35 35h329.99c19.33 0 35-15.67 35-35s-15.68-35-35.01-35z"  horiz-adv-x="1024" />

    
    <glyph glyph-name="jiudianguanli" unicode="&#58904;" d="M795.93 34.15H620.54c-19.98 0-36.17 16.19-36.17 36.17s16.19 36.17 36.17 36.17h139.22V323l-152.99 63.01c-18.47 7.61-27.28 28.75-19.67 47.22 7.61 18.47 28.75 27.28 47.22 19.67l175.39-72.23c13.55-5.58 22.4-18.79 22.4-33.44v-276.9c-0.01-19.99-16.21-36.18-36.18-36.18zM620.54 34.15H226.43c-19.98 0-36.17 16.19-36.17 36.17V694.35c0 19.98 16.19 36.17 36.17 36.17h394.11c19.98 0 36.17-16.19 36.17-36.17v-624.03c0-19.98-16.2-36.17-36.17-36.17zM262.6 106.49h321.77V658.18H262.6v-551.69zM487.14 470.41H355.73c-19.98 0-36.17 16.19-36.17 36.17s16.19 36.17 36.17 36.17h131.41c19.98 0 36.17-16.19 36.17-36.17s-16.2-36.17-36.17-36.17zM491.24 340.6h-131.4c-19.98 0-36.17 16.19-36.17 36.17s16.19 36.17 36.17 36.17h131.41c19.98 0 36.17-16.19 36.17-36.17-0.01-19.98-16.2-36.17-36.18-36.17z"  horiz-adv-x="1024" />

    
    <glyph glyph-name="fangjiama" unicode="&#58905;" d="M607.29 348.81H338.84c-19.68 0-35.64 15.96-35.64 35.64s15.96 35.64 35.64 35.64h268.45c19.68 0 35.64-15.96 35.64-35.64s-15.96-35.64-35.64-35.64zM480.7 498.54H338.84c-19.68 0-35.64 15.96-35.64 35.64s15.96 35.64 35.64 35.64H480.7c19.68 0 35.64-15.96 35.64-35.64s-15.96-35.64-35.64-35.64zM686.26 199.08H338.84c-19.68 0-35.64 15.96-35.64 35.64s15.96 35.64 35.64 35.64h347.42c19.68 0 35.64-15.96 35.64-35.64s-15.95-35.64-35.64-35.64zM741.08 6.3H284c-54.49 0-98.82 44.33-98.82 98.82V663.78c0 54.49 44.33 98.82 98.82 98.82h305.49c19.68 0 35.64-15.96 35.64-35.64v-140.17c0-15.19 12.36-27.54 27.54-27.54h151.6c19.68 0 35.64-15.96 35.64-35.64v-418.49c-0.01-54.49-44.34-98.82-98.83-98.82zM284 691.33c-15.19 0-27.54-12.36-27.54-27.54v-558.66c0-15.19 12.36-27.54 27.54-27.54h457.08c15.19 0 27.54 12.36 27.54 27.54V487.97H652.67c-54.49 0-98.82 44.33-98.82 98.82V691.33H284zM804.26 487.97c-8.8 0-17.61 3.24-24.5 9.76L564.98 701.09c-14.29 13.53-14.91 36.09-1.38 50.38 13.53 14.29 36.09 14.91 50.38 1.38l214.78-203.36c14.29-13.53 14.91-36.09 1.38-50.38-7.01-7.4-16.44-11.14-25.88-11.14z"  horiz-adv-x="1024" />

    
    <glyph glyph-name="shouye-jiantou" unicode="&#58906;" d="M730.67 38.81c-8.96 0-17.91 3.42-24.75 10.25l-310.2 310.21c-13.67 13.67-13.67 35.83 0 49.5l310.2 310.2c13.67 13.67 35.83 13.67 49.5 0 13.67-13.67 13.67-35.83 0-49.5L469.96 384.02l285.46-285.46c13.67-13.67 13.67-35.83 0-49.5-6.83-6.83-15.79-10.25-24.75-10.25zM418.35 38.81c-8.96 0-17.91 3.42-24.75 10.25L83.4 359.27c-13.67 13.67-13.67 35.83 0 49.5l310.21 310.2c13.67 13.67 35.83 13.67 49.5 0 13.67-13.67 13.67-35.83 0-49.5L157.64 384.02 443.1 98.56c13.67-13.67 13.67-35.83 0-49.5-6.83-6.83-15.79-10.25-24.75-10.25z"  horiz-adv-x="1024" />

    
    <glyph glyph-name="jingyingleibaobiao" unicode="&#58907;" d="M227.21 29.81a34.996 34.996 0 0 0-35 35.01l0.2 598.06c0 49.09 39.95 89.04 89.05 89.04h455.28c49.1 0 89.05-39.95 89.05-89.05l-0.2-598.08a35 35 0 0 0-45.81-33.28L508.9 119.56l-270.87-88.03a35.01 35.01 0 0 0-10.82-1.72zM508.9 191.36c3.65 0 7.3-0.57 10.82-1.71l235.89-76.66 0.18 549.91c0 10.49-8.54 19.04-19.05 19.04H281.45c-10.5 0-19.05-8.54-19.05-19.05L262.22 113l235.86 76.65c3.51 1.14 7.16 1.71 10.82 1.71zM652.04 467.13H365.69c-19.33 0-35 15.67-35 35s15.67 35 35 35h286.35c19.33 0 35-15.67 35-35s-15.67-35-35-35zM531.78 329.94H365.69c-19.33 0-35 15.67-35 35s15.67 35 35 35h166.09c19.33 0 35-15.67 35-35s-15.67-35-35-35z"  horiz-adv-x="1024" />

    
    <glyph glyph-name="shangjiantou" unicode="&#58908;" d="M874.16 168.04c-8.96 0-17.91 3.42-24.75 10.25L511.33 516.37 173.26 178.3c-13.67-13.67-35.83-13.67-49.5 0-13.67 13.67-13.67 35.83 0 49.5l362.82 362.82c13.67 13.67 35.83 13.67 49.5 0L898.9 227.8c13.67-13.67 13.67-35.83 0-49.5-6.83-6.84-15.79-10.26-24.74-10.26z"  horiz-adv-x="1024" />

    
    <glyph glyph-name="huiyuanleiguanli" unicode="&#58909;" d="M907.4 428.43H117.17c-12.32 0-23.74 6.48-30.05 17.06a35.01 35.01 0 0 0-0.76 34.55l117.69 218.34a35.001 35.001 0 0 0 30.81 18.39h554.85c12.87 0 24.7-7.06 30.81-18.39l117.69-218.34a34.985 34.985 0 0 0-0.76-34.55 34.992 34.992 0 0 0-30.05-17.06z m-731.61 70h672.98l-79.96 148.34H255.75l-79.96-148.34zM635.07 428.43H389.49c-10.29 0-20.06 4.53-26.71 12.39a35.007 35.007 0 0 0-7.8 28.4l36.58 218.34c2.82 16.86 17.42 29.22 34.52 29.22H598.5c17.1 0 31.69-12.35 34.52-29.22l36.58-218.34a35.017 35.017 0 0 0-7.8-28.4 35.027 35.027 0 0 0-26.73-12.39z m-204.23 70h162.88l-24.85 148.34H455.69l-24.85-148.34zM512.28-57.78c-10.54 0-20.52 4.75-27.16 12.93L90 441.36c-8.52 10.48-10.24 24.92-4.44 37.11s18.1 19.96 31.6 19.96H907.4a35 35 0 0 0 27.16-57.07L539.45-44.85a35.017 35.017 0 0 0-27.17-12.93zM190.71 428.43l321.58-395.71 321.58 395.71H190.71zM512.28-57.78c-16.03 0-30.01 10.89-33.93 26.43L355.56 454.86c-4.73 18.74 6.62 37.77 25.36 42.5 18.74 4.73 37.77-6.62 42.5-25.36l88.86-351.84L601.14 472c4.73 18.74 23.75 30.1 42.5 25.36 18.74-4.73 30.1-23.76 25.36-42.5L546.22-31.35c-3.93-15.54-17.91-26.43-33.94-26.43z"  horiz-adv-x="1024" />

    
    <glyph glyph-name="rili" unicode="&#58910;" d="M780.89 44.17H240.68c-52.38 0-94.99 42.61-94.99 94.99V620.27c0 52.38 42.61 94.99 94.99 94.99h540.21c52.38 0 94.99-42.61 94.99-94.99v-481.11c0-52.37-42.62-94.99-94.99-94.99zM240.68 645.26c-13.78 0-24.99-11.21-24.99-24.99v-481.11c0-13.78 11.21-24.99 24.99-24.99h540.21c13.78 0 24.99 11.21 24.99 24.99V620.27c0 13.78-11.21 24.99-24.99 24.99H240.68zM309.97 592.32c-19.33 0-35 15.67-35 35V730.07c0 19.33 15.67 35 35 35s35-15.67 35-35v-102.75c0-19.33-15.67-35-35-35zM711.6 592.32c-19.33 0-35 15.67-35 35V730.07c0 19.33 15.67 35 35 35s35-15.67 35-35v-102.75c0-19.33-15.67-35-35-35zM840.88 495.43H180.69c-19.33 0-35 15.67-35 35s15.67 35 35 35h660.19c19.33 0 35-15.67 35-35s-15.67-35-35-35zM364.43 338.58h-42.02c-13.81 0-25 11.19-25 25s11.19 25 25 25h42.02c13.81 0 25-11.19 25-25s-11.2-25-25-25zM534.5 338.58h-42.01c-13.81 0-25 11.19-25 25s11.19 25 25 25h42.01c13.81 0 25-11.19 25-25s-11.19-25-25-25zM704.57 336.56h-42.01c-13.81 0-25 11.19-25 25s11.19 25 25 25h42.01c13.81 0 25-11.19 25-25s-11.19-25-25-25zM359.01 232.97h-42.02c-13.81 0-25 11.19-25 25s11.19 25 25 25h42.02c13.81 0 25-11.19 25-25s-11.2-25-25-25zM529.08 232.97h-42.01c-13.81 0-25 11.19-25 25s11.19 25 25 25h42.01c13.81 0 25-11.19 25-25s-11.19-25-25-25zM699.15 230.95h-42.01c-13.81 0-25 11.19-25 25s11.19 25 25 25h42.01c13.81 0 25-11.19 25-25s-11.19-25-25-25z"  horiz-adv-x="1024" />

    
    <glyph glyph-name="tixing" unicode="&#58911;" d="M772.29 143.24h-70V455.21c0 105.3-85.67 190.97-190.97 190.97s-190.97-85.67-190.97-190.97v-311.96h-70V455.21c0 69.71 27.15 135.24 76.44 184.53 49.29 49.29 114.83 76.44 184.53 76.44 69.71 0 135.24-27.15 184.53-76.44 49.29-49.29 76.44-114.83 76.44-184.53v-311.97zM840.98 107.49H181.66c-19.33 0-35 15.67-35 35s15.67 35 35 35h659.32c19.33 0 35-15.67 35-35s-15.67-35-35-35zM511.32 646.17c-19.33 0-35 15.67-35 35v86.47c0 19.33 15.67 35 35 35s35-15.67 35-35v-86.47c0-19.33-15.67-35-35-35zM604.25 131.53c0-25.66-10.4-48.9-27.22-65.71s-40.05-27.22-65.71-27.22c-51.33 0-92.93 41.6-92.93 92.93 0 3.71 0.22 7.36 0.65 10.96H603.6c0.43-3.6 0.65-7.25 0.65-10.96z"  horiz-adv-x="1024" />

    
    <glyph glyph-name="huiyuanleibaobiao" unicode="&#58912;" d="M517.22-12.97c-15.5 0-31.34 5.48-44.61 15.43a35.492 35.492 0 0 0-4.44 3.96L90.67 405.84c-23.5 23.9-25.44 61.31-4.53 89.18 0.2 0.27 0.4 0.53 0.61 0.79l183.83 231.05c13.4 16.75 33.7 26.7 54.37 26.7h374.41c20.67 0 40.97-9.96 54.32-26.63l185.48-231.01c0.86-1.07 1.66-2.2 2.39-3.36 17.33-27.72 14.63-62.74-6.71-87.13-0.22-0.26-0.45-0.51-0.68-0.76L566.49 8.35c-0.29-0.32-0.59-0.63-0.9-0.94-13.14-13.14-30.31-20.38-48.37-20.38z m0.25 69.99z m-1.22 0.44c0.08-0.04 0.15-0.07 0.23-0.1L882.3 451.7c0.73 0.97 0.58 2.08 0.32 2.85L699.06 683.16c-0.15 0.19-0.3 0.32-0.42 0.41H325.67c-0.11-0.08-0.25-0.2-0.37-0.36L142.26 453.16l373.99-395.7zM908.5 428.49zM515.53 240.01c-9.61 0-18.8 3.95-25.41 10.94L309.66 441.53c-13.29 14.04-12.69 36.19 1.35 49.48s36.19 12.69 49.48-1.35l154.91-163.6 149.99 160.09c13.22 14.11 35.37 14.83 49.47 1.61 14.11-13.22 14.83-35.37 1.61-49.47l-175.4-187.2a35.018 35.018 0 0 0-25.45-11.07c-0.03-0.01-0.06-0.01-0.09-0.01z"  horiz-adv-x="1024" />

    
    <glyph glyph-name="lajixiang" unicode="&#58913;" d="M696-5.89H326.66c-27.72 0-54 9.6-73.99 27.04-21.05 18.35-33.12 44.18-33.12 70.84V592.48c0 19.33 15.67 35 35 35s35-15.67 35-35v-500.49c0-15.12 16.99-27.88 37.11-27.88H696c20.12 0 37.11 12.77 37.11 27.88V592.48c0 19.33 15.67 35 35 35s35-15.67 35-35v-500.49c0-26.67-12.07-52.49-33.12-70.84-19.99-17.44-46.27-27.04-73.99-27.04zM661.33 565.36c-19.33 0-35 15.67-35 35V661.4c0 17.05-18.35 39.88-37.11 39.88H433.45c-18.76 0-37.11-22.84-37.11-39.88v-61.03c0-19.33-15.67-35-35-35s-35 15.67-35 35V661.4c0 51.87 45.81 109.88 107.11 109.88h155.77c28.59 0 55.9-12.75 76.91-35.9 19.19-21.15 30.2-48.12 30.2-73.99v-61.03c0-19.33-15.67-35-35-35zM859.87 565.36H162.8c-19.33 0-35 15.67-35 35s15.67 35 35 35h697.07c19.33 0 35-15.67 35-35s-15.67-35-35-35zM425.55 166.26c-19.33 0-35 15.67-35 35V404.33c0 19.33 15.67 35 35 35s35-15.67 35-35v-203.07c0-19.33-15.67-35-35-35zM597.11 166.26c-19.33 0-35 15.67-35 35V404.33c0 19.33 15.67 35 35 35s35-15.67 35-35v-203.07c0-19.33-15.67-35-35-35z"  horiz-adv-x="1024" />

    
    <glyph glyph-name="sousuo" unicode="&#58914;" d="M840.2 24.13c-8.96 0-17.92 3.42-24.75 10.25L624.53 225.3c-13.67 13.67-13.67 35.83 0 49.5 13.67 13.67 35.83 13.67 49.5 0l190.92-190.92c13.67-13.67 13.67-35.83 0-49.5a34.932 34.932 0 0 0-24.75-10.25zM444.9 130.73c-42.03 0-83 7.98-121.79 23.71-40.18 16.29-76.21 40.21-107.1 71.1-30.89 30.89-54.81 66.92-71.1 107.1-15.73 38.79-23.7 79.76-23.7 121.79s7.98 83 23.7 121.79c16.29 40.18 40.21 76.21 71.1 107.1 30.89 30.89 66.92 54.81 107.1 71.1 38.79 15.73 79.76 23.7 121.79 23.7s83-7.98 121.79-23.7c40.18-16.29 76.21-40.21 107.1-71.1 30.89-30.89 54.81-66.92 71.1-107.1 15.73-38.79 23.71-79.76 23.71-121.79s-7.98-83-23.71-121.79c-16.29-40.18-40.21-76.21-71.1-107.1-30.89-30.89-66.92-54.81-107.1-71.1-38.79-15.73-79.76-23.71-121.79-23.71z m0 577.4c-67.77 0-131.47-26.39-179.39-74.31-47.92-47.92-74.31-111.63-74.31-179.39s26.39-131.47 74.31-179.39c47.92-47.92 111.63-74.31 179.39-74.31s131.47 26.39 179.39 74.31 74.31 111.63 74.31 179.39-26.39 131.47-74.31 179.39c-47.92 47.92-111.62 74.31-179.39 74.31z"  horiz-adv-x="1024" />

    
    <glyph glyph-name="weiye-jiantou" unicode="&#58915;" d="M248.15 38.81c-8.96 0-17.91 3.42-24.75 10.25-13.67 13.67-13.67 35.83 0 49.5l285.46 285.46L223.4 669.47c-13.67 13.67-13.67 35.83 0 49.5 13.67 13.67 35.83 13.67 49.5 0l310.2-310.2c13.67-13.67 13.67-35.83 0-49.5L272.9 49.06a34.932 34.932 0 0 0-24.75-10.25zM560.47 38.81c-8.96 0-17.92 3.42-24.75 10.25-13.67 13.67-13.67 35.83 0 49.5l285.46 285.46-285.46 285.45c-13.67 13.67-13.67 35.83 0 49.5 13.67 13.67 35.83 13.67 49.5 0l310.21-310.2c6.56-6.56 10.25-15.47 10.25-24.75s-3.69-18.19-10.25-24.75L585.22 49.06a34.932 34.932 0 0 0-24.75-10.25z"  horiz-adv-x="1024" />

    
    <glyph glyph-name="tishi" unicode="&#58916;" d="M511.64-62.71c-60.06 0-118.34 11.77-173.23 34.98-52.99 22.42-100.58 54.5-141.44 95.35s-72.94 88.44-95.35 141.44c-23.21 54.88-34.98 113.17-34.98 173.22s11.77 118.34 34.98 173.23c22.42 52.99 54.5 100.58 95.35 141.44 40.86 40.86 88.44 72.94 141.44 95.35 54.88 23.21 113.17 34.98 173.22 34.98 60.06 0 118.34-11.77 173.23-34.98 52.99-22.42 100.58-54.5 141.44-95.35 40.86-40.86 72.94-88.44 95.35-141.44 23.21-54.88 34.98-113.17 34.98-173.22 0-60.06-11.77-118.34-34.98-173.22-22.42-53-54.5-100.58-95.35-141.44s-88.44-72.94-141.44-95.35c-54.88-23.22-113.16-34.99-173.22-34.99z m0 820c-100.17 0-194.34-39.01-265.17-109.83s-109.83-165-109.83-265.17 39.01-194.34 109.83-265.17c70.83-70.83 165-109.83 265.17-109.83 100.17 0 194.34 39.01 265.16 109.83 70.83 70.83 109.83 165 109.83 265.16 0 100.17-39.01 194.34-109.83 265.17s-165 109.84-265.16 109.84zM513.44 241.89c-19.33 0-35 15.67-35 35V598.85c0 19.33 15.67 35 35 35s35-15.67 35-35v-321.97c0-19.32-15.67-34.99-35-34.99zM509.83 130.72c-19.33 0-35 15.67-35 35v4.46c0 19.33 15.67 35 35 35s35-15.67 35-35v-4.46c0-19.33-15.67-35-35-35z"  horiz-adv-x="1024" />

    
    <glyph glyph-name="xiaoximoban" unicode="&#58917;" d="M302.31-16.94c-6.2 0-12.4 1.65-17.9 4.93a35.006 35.006 0 0 0-17.1 30.07v68.21H226.8c-44.99 0-81.6 36.61-81.6 81.6V630.94c0 44.99 36.6 81.6 81.6 81.6h570.97c44.99 0 81.6-36.6 81.6-81.6v-463.08c0-44.99-36.6-81.6-81.6-81.6H501.5l-182.51-98.98a35.02 35.02 0 0 0-16.68-4.22zM226.8 642.54c-6.4 0-11.6-5.2-11.6-11.6v-463.08c0-6.4 5.2-11.6 11.6-11.6h75.51c19.33 0 35-15.67 35-35v-44.41l138.64 75.18a34.978 34.978 0 0 0 16.69 4.23h305.15c6.4 0 11.6 5.2 11.6 11.6V630.94c0 6.4-5.2 11.6-11.6 11.6H226.8zM659.22 448.94H365.34c-19.33 0-35 15.67-35 35s15.67 35 35 35h293.88c19.33 0 35-15.67 35-35s-15.67-35-35-35zM659.22 288.46H365.34c-19.33 0-35 15.67-35 35s15.67 35 35 35h293.88c19.33 0 35-15.67 35-35s-15.67-35-35-35z"  horiz-adv-x="1024" />

    
    <glyph glyph-name="wenjianjia" unicode="&#58918;" d="M807.92 38.07H211.2c-38.35 0-69.55 31.2-69.55 69.55V569.34c0 20.91 16.95 37.86 37.86 37.86h628.4c38.35 0 69.55-31.2 69.55-69.55v-430.04c0.01-38.34-31.19-69.54-69.54-69.54zM217.38 113.8h584.36V531.47H217.38V113.8zM495.78 531.47c-18.23 0-34.3 13.2-37.33 31.78l-16.8 103.1H217.38v-97.01c0-20.91-16.95-37.86-37.86-37.86s-37.86 16.95-37.86 37.86V674.42c0 37.31 29.46 67.66 65.66 67.66H450.5c31.4 0 58.51-23.05 64.46-54.81 0.06-0.3 0.11-0.59 0.16-0.89l18.08-110.95c3.36-20.64-10.64-40.1-31.28-43.46-2.07-0.34-4.12-0.5-6.14-0.5zM379.75 531.47h-54.28c-20.91 0-37.86 16.95-37.86 37.86s16.95 37.86 37.86 37.86h54.28c20.91 0 37.86-16.95 37.86-37.86s-16.95-37.86-37.86-37.86z"  horiz-adv-x="1024" />

    
    <glyph glyph-name="qudaoguanli" unicode="&#58919;" d="M511.8-48.93c-6.13 0-12.27 1.61-17.74 4.83l-145.12 85.35a35.003 35.003 0 0 0-17.26 30.17V242.11c0 12.4 6.56 23.88 17.26 30.17l145.12 85.35a35.012 35.012 0 0 0 35.49 0l145.12-85.35a35.015 35.015 0 0 0 17.26-30.17v-170.69c0-12.4-6.57-23.88-17.26-30.17L529.54-44.1a34.963 34.963 0 0 0-17.74-4.83zM401.68 91.44l110.12-64.76 110.12 64.76V222.09L511.8 286.86 401.68 222.1v-130.66zM721.75 301.6c-6.13 0-12.27 1.61-17.74 4.83l-145.12 85.35a35.015 35.015 0 0 0-17.26 30.17v170.7c0 12.4 6.57 23.88 17.26 30.17L704 708.16a34.993 34.993 0 0 0 35.48 0l145.12-85.35a35.015 35.015 0 0 0 17.26-30.17v-170.69c0-12.4-6.57-23.88-17.26-30.17l-145.12-85.35a34.927 34.927 0 0 0-17.73-4.83zM611.62 441.97l110.12-64.76 110.12 64.76V572.63l-110.12 64.76-110.12-64.76v-130.66zM301.85 301.6c-6.13 0-12.27 1.61-17.74 4.83l-145.12 85.35a35.015 35.015 0 0 0-17.26 30.17v170.7c0 12.4 6.57 23.88 17.26 30.17l145.12 85.35a35.012 35.012 0 0 0 35.49 0l145.12-85.35a35.015 35.015 0 0 0 17.26-30.17v-170.69c0-12.4-6.57-23.88-17.26-30.17L319.6 306.44a34.937 34.937 0 0 0-17.75-4.84zM191.73 441.97l110.12-64.76 110.12 64.76V572.63l-110.12 64.76-110.12-64.76v-130.66zM511.8 209.32c-3.45 0-6.91 0.89-10 2.68l-145.12 83.79c-6.19 3.57-10 10.17-10 17.32V480.68c0 7.15 3.81 13.75 10 17.32l145.12 83.79a20.013 20.013 0 0 0 20 0L666.92 498c6.19-3.57 10-10.17 10-17.32v-167.57c0-7.15-3.81-13.75-10-17.32L521.8 212a20.05 20.05 0 0 0-10-2.68zM386.68 324.66l125.12-72.24 125.12 72.24V469.14L511.8 541.38l-125.12-72.24v-144.48z"  horiz-adv-x="1024" />

    
    <glyph glyph-name="zengjia" unicode="&#58920;" d="M897.13 346.83h-769.1c-19.33 0-35 15.67-35 35s15.67 35 35 35h769.1c19.33 0 35-15.67 35-35s-15.67-35-35-35zM512.58-37.72c-19.33 0-35 15.67-35 35v769.1c0 19.33 15.67 35 35 35s35-15.67 35-35v-769.1c0-19.33-15.67-35-35-35z"  horiz-adv-x="1024" />

    
    <glyph glyph-name="tianjia" unicode="&#58921;" d="M745.13 348.05H278.66c-19.33 0-35 15.67-35 35s15.67 35 35 35h466.46c19.33 0 35-15.67 35-35 0.01-19.33-15.66-35-34.99-35zM511.89 114.82c-19.33 0-35 15.67-35 35V616.29c0 19.33 15.67 35 35 35s35-15.67 35-35v-466.46c0-19.34-15.67-35.01-35-35.01zM511.9-61.95c-60.06 0-118.34 11.77-173.23 34.98-52.99 22.42-100.58 54.5-141.44 95.35-40.86 40.86-72.94 88.44-95.35 141.44C78.67 264.7 66.9 322.99 66.9 383.04s11.77 118.34 34.98 173.23c22.42 52.99 54.5 100.58 95.35 141.44 40.86 40.86 88.44 72.94 141.44 95.35 54.88 23.21 113.17 34.98 173.22 34.98s118.34-11.77 173.23-34.98c52.99-22.41 100.58-54.5 141.44-95.35 40.86-40.86 72.94-88.44 95.35-141.44 23.21-54.88 34.98-113.17 34.98-173.22 0-60.06-11.77-118.34-34.98-173.23-22.42-52.99-54.5-100.58-95.35-141.44-40.86-40.86-88.44-72.94-141.44-95.35-54.88-23.21-113.17-34.98-173.22-34.98z m0 820c-100.17 0-194.34-39.01-265.17-109.83s-109.83-165-109.83-265.16c0-100.17 39.01-194.34 109.83-265.17 70.83-70.83 165-109.83 265.16-109.83 100.17 0 194.34 39.01 265.16 109.83s109.83 165 109.83 265.17c0 100.17-39.01 194.34-109.83 265.17S612.06 758.05 511.9 758.05z"  horiz-adv-x="1024" />

    
    <glyph glyph-name="xiajiantou" unicode="&#58922;" d="M511.33 168.04c-8.96 0-17.91 3.42-24.75 10.25L123.76 541.12c-13.67 13.67-13.67 35.83 0 49.5 13.67 13.67 35.83 13.67 49.5 0l338.08-338.07 338.07 338.07c13.67 13.67 35.83 13.67 49.5 0 13.67-13.67 13.67-35.83 0-49.5L536.08 178.3c-6.83-6.84-15.79-10.26-24.75-10.26z"  horiz-adv-x="1024" />

    
    <glyph glyph-name="yingxiaoleibaobiao" unicode="&#58923;" d="M511.51-61.83c-60.06 0-118.34 11.77-173.23 34.98-52.99 22.42-100.58 54.5-141.44 95.35s-72.94 88.44-95.35 141.44c-23.21 54.88-34.98 113.17-34.98 173.23S78.28 501.51 101.5 556.4c22.41 52.99 54.5 100.58 95.35 141.44 40.86 40.86 88.44 72.94 141.44 95.35 54.88 23.21 113.17 34.98 173.22 34.98 60.06 0 118.34-11.77 173.23-34.98 52.99-22.41 100.58-54.5 141.44-95.35 40.86-40.86 72.94-88.44 95.35-141.44 23.21-54.88 34.98-113.17 34.98-173.22 0-60.06-11.77-118.34-34.98-173.22-22.42-53-54.5-100.58-95.35-141.44s-88.44-72.94-141.44-95.35c-54.89-23.23-113.17-35-173.23-35z m0 820c-100.17 0-194.34-39.01-265.17-109.83s-109.83-165-109.83-265.17S175.52 188.83 246.34 118c70.83-70.83 165-109.83 265.17-109.83 100.17 0 194.34 39.01 265.16 109.83S886.5 283 886.5 383.16 847.49 577.5 776.67 648.33 611.68 758.17 511.51 758.17zM612.21 141.03c-15.61 0-31.15 4.33-44.52 12.65l-56.17 34.93-56.2-34.94c-19.06-11.84-42.48-15.58-64.27-10.28-21.79 5.31-40.86 19.4-52.34 38.66-11.37 18.98-14.86 41.37-9.79 62.99l15.67 66.87-51.04 44.5c-16.87 14.77-27.07 35.16-28.78 57.44-1.71 22.28 5.27 43.98 19.64 61.1 14.34 17.08 35.32 27.93 57.55 29.76l65.95 5.38 25.62 62.71c8.63 21.1 24.95 37.5 45.97 46.17 20.91 8.62 43.9 8.52 64.74-0.3 0.01-0.01 0.03-0.01 0.04-0.02 20.68-8.78 36.74-25.08 45.21-45.89l25.61-62.69 65.92-5.38c46.21-3.76 80.85-44.6 77.2-91.04-1.73-22.22-11.94-42.55-28.73-57.22l-51.07-44.53 15.67-66.88c10.59-45.15-17.33-90.77-62.23-101.67a84.176 84.176 0 0 0-19.65-2.32z m-100.7 123.79c6.41 0 12.82-1.76 18.48-5.28l74.67-46.42c3.18-1.98 7.07-2.61 10.69-1.72 7.69 1.87 12.45 9.79 10.6 17.67l-20.48 87.4a34.972 34.972 0 0 0 11.08 34.36l66.92 58.35c2.9 2.53 4.68 6.08 4.98 9.95 0.63 8.08-5.24 15.16-13.1 15.8L588 442.08a34.982 34.982 0 0 0-29.55 21.65l-33.75 82.62c-1.47 3.6-4.21 6.39-7.75 7.89-4.44 1.86-8.29 1.05-10.74 0.04-2.07-0.86-5.85-3.02-7.86-7.94l-33.75-82.6a35.012 35.012 0 0 0-29.55-21.65l-87.35-7.13c-3.72-0.31-7.25-2.13-9.66-5.01-5.18-6.17-4.46-15.5 1.59-20.81l66.86-58.3a34.988 34.988 0 0 0 11.07-34.36l-20.48-87.4c-0.9-3.82-0.28-7.76 1.73-11.12 1.97-3.3 5.16-5.66 8.81-6.55 3.65-0.89 7.57-0.26 10.76 1.72l74.67 46.42a34.833 34.833 0 0 0 18.46 5.27z"  horiz-adv-x="1024" />

    
    <glyph glyph-name="ziwenjian" unicode="&#58924;" d="M835.13 38.07H210.12c-10.52 0-21.05 2.55-30.46 7.37-23.45 12.02-38.01 36.28-38.01 63.31V674.42c0 37.31 29.45 67.66 65.66 67.66H450.5c31.41 0 58.52-23.06 64.46-54.83 0.05-0.29 0.11-0.58 0.15-0.87l12.91-79.17h280.99c37.75 0 68.47-31.7 68.47-70.67V430.8c0-20.91-16.95-37.86-37.86-37.86s-37.86 16.95-37.86 37.86V531.48H495.82c-18.56 0-34.38 13.45-37.37 31.77l-16.81 103.1H217.38V113.8h617.75c20.91 0 37.86-16.95 37.86-37.86s-16.95-37.87-37.86-37.87zM836.58 42.64c-2.89 0-5.82 0.33-8.76 1.02-20.55 4.82-33.3 25.38-28.48 45.92l68.26 291.13H305.46l-72.35-308.57c-4.82-20.55-25.38-33.3-45.92-28.48-20.55 4.82-33.3 25.38-28.48 45.92l79.26 338.06c4.05 17.27 19.46 29.49 37.2 29.49h640.64c11.67 0 22.7-5.33 29.94-14.48 7.25-9.14 9.92-21.1 7.26-32.46l-79.26-338.06c-4.13-17.6-19.83-29.48-37.17-29.49z"  horiz-adv-x="1024" />

    
    <glyph glyph-name="youhuiquan" unicode="&#58925;" d="M831.13 63.36H192.87c-19.33 0-35 15.67-35 35V302.49c0 19.33 15.67 35 35 35 25.65 0 46.51 20.86 46.51 46.51s-20.86 46.51-46.51 46.51c-19.33 0-35 15.67-35 35V669.64c0 19.33 15.67 35 35 35h638.25c19.33 0 35-15.67 35-35v-204.13c0-19.33-15.67-35-35-35-25.65 0-46.51-20.86-46.51-46.51s20.86-46.51 46.51-46.51c19.33 0 35-15.67 35-35v-204.13c0.01-19.33-15.66-35-34.99-35z m-603.26 70h568.25v139.5c-47.19 14.9-81.51 59.09-81.51 111.14s34.32 96.24 81.51 111.14v139.5H227.87v-139.5c47.19-14.9 81.51-59.09 81.51-111.14s-34.32-96.24-81.51-111.14v-139.5zM410.81 245.83c-19.33 0-35 15.67-35 35V487.17c0 19.33 15.67 35 35 35s35-15.67 35-35v-206.34c0-19.33-15.67-35-35-35z"  horiz-adv-x="1024" />

    
    <glyph glyph-name="zuojianju" unicode="&#58926;" d="M274.62 212.34c-8.96 0-17.91 3.42-24.75 10.25L127.73 344.74c-13.67 13.67-13.67 35.83 0 49.5l122.14 122.14c13.67 13.67 35.83 13.67 49.5 0 13.67-13.67 13.67-35.83 0-49.5l-97.4-97.4 97.39-97.39c13.67-13.67 13.67-35.83 0-49.5-6.82-6.83-15.78-10.25-24.74-10.25zM870.51 337.46H374.24c-19.33 0-35 15.67-35 35s15.67 35 35 35h496.27c19.33 0 35-15.67 35-35s-15.67-35-35-35zM870.51 647.92H152.48c-19.33 0-35 15.67-35 35s15.67 35 35 35h718.03c19.33 0 35-15.67 35-35s-15.67-35-35-35zM870.51 29.05H152.48c-19.33 0-35 15.67-35 35s15.67 35 35 35h718.03c19.33 0 35-15.67 35-35s-15.67-35-35-35z"  horiz-adv-x="1024" />

    
    <glyph glyph-name="zhucaidan" unicode="&#58927;" d="M837.83 361.09H414.39c-18.23 0-33 14.77-33 33s14.77 33 33 33h423.43c18.23 0 33-14.77 33-33 0.01-18.23-14.77-33-32.99-33zM837.83 639.02H177.55c-18.23 0-33 14.77-33 33s14.77 33 33 33h660.27c18.23 0 33-14.77 33-33s-14.77-33-32.99-33zM837.83 50.53H177.55c-18.23 0-33 14.77-33 33s14.77 33 33 33h660.27c18.23 0 33-14.77 33-33s-14.77-33-32.99-33zM143.36 303.41V452.18c0 9.07 7.36 16.43 16.43 16.43h148.78c14.64 0 21.97-17.7 11.62-28.05L171.41 291.79c-10.35-10.35-28.05-3.02-28.05 11.62z"  horiz-adv-x="1024" />

    
    <glyph glyph-name="shezhi" unicode="&#58928;" d="M509.96-59.43c-58.99 0-106.99 47.99-106.99 106.99l-0.03 13.76c-44.11 14.56-84.68 38-119.44 69l-11.94-6.89c-16.8-9.7-35.18-14.31-53.31-14.31-37 0-73.04 19.18-92.83 53.47-29.5 51.09-11.93 116.65 39.16 146.15l11.8 6.81c-4.77 22.85-7.18 45.98-7.18 69.05 0 23.08 2.41 46.21 7.18 69.06l-11.8 6.81c-24.75 14.29-42.45 37.36-49.85 64.96-7.4 27.6-3.6 56.44 10.69 81.18 29.5 51.09 95.06 68.65 146.15 39.16l11.94-6.89a339.232 339.232 0 0 0 119.47 68.98v13.79c0 58.99 47.99 106.99 106.99 106.99 58.99 0 106.99-47.99 106.99-106.99v-13.79c44.14-14.57 84.72-38 119.47-68.98l11.94 6.89c51.08 29.49 116.65 11.93 146.14-39.16 14.29-24.75 18.09-53.58 10.69-81.18-7.4-27.6-25.1-50.67-49.85-64.96l-11.8-6.81c4.77-22.85 7.18-45.98 7.18-69.06s-2.41-46.2-7.17-69.06l11.8-6.81c24.75-14.29 42.45-37.36 49.85-64.96 7.4-27.6 3.6-56.44-10.69-81.19s-37.36-42.45-64.96-49.85c-27.6-7.4-56.44-3.6-81.18 10.69l-11.94 6.89c-34.75-30.98-75.33-54.41-119.47-68.98v-13.78c-0.02-58.98-48.02-106.98-107.01-106.98zM288.82 208.81c9.33 0 18.55-3.73 25.34-10.85 35.93-37.69 81.56-64.04 131.94-76.23 15.68-3.79 26.73-17.8 26.77-33.93l0.1-40.16c0-20.48 16.59-37.07 36.99-37.07s36.99 16.59 36.99 36.99v40.16c0 16.16 11.07 30.22 26.77 34.02 50.46 12.2 96.12 38.56 132.04 76.23 11.15 11.69 28.85 14.23 42.83 6.16l34.77-20.07c8.56-4.94 18.53-6.25 28.07-3.7 9.54 2.56 17.52 8.68 22.46 17.23 4.94 8.56 6.25 18.52 3.7 28.07s-8.68 17.52-17.23 22.46l-34.65 20c-13.98 8.08-20.63 24.67-16.08 40.17 7.37 25.12 11.11 50.79 11.11 76.32 0 25.53-3.74 51.21-11.11 76.32-4.55 15.5 2.1 32.09 16.08 40.17l34.65 20c8.56 4.94 14.68 12.92 17.23 22.46 2.56 9.54 1.24 19.51-3.7 28.07-10.2 17.66-32.86 23.74-50.52 13.54L748.6 565.1c-13.98-8.08-31.68-5.53-42.83 6.16-35.92 37.67-81.57 64.02-132.04 76.23-15.71 3.8-26.77 17.86-26.77 34.02v40.16c0 20.39-16.59 36.99-36.99 36.99s-36.99-16.59-36.99-36.99v-40.16c0-16.16-11.07-30.22-26.77-34.02-50.46-12.2-96.12-38.56-132.04-76.23-11.14-11.69-28.84-14.23-42.83-6.16l-34.77 20.07c-17.66 10.2-40.33 4.12-50.53-13.54-4.94-8.55-6.25-18.52-3.69-28.06s8.68-17.52 17.23-22.46l34.65-20.01c13.99-8.08 20.63-24.67 16.08-40.17-7.37-25.11-11.11-50.79-11.11-76.32 0-25.53 3.74-51.21 11.11-76.32 4.55-15.5-2.1-32.09-16.08-40.17l-34.65-20c-17.66-10.2-23.74-32.86-13.54-50.53 10.2-17.66 32.86-23.73 50.52-13.54l34.77 20.08a34.98 34.98 0 0 0 17.49 4.68z m221.14 19.62c-86.11 0-156.17 70.06-156.17 156.17 0 86.12 70.06 156.18 156.17 156.18 86.11 0 156.17-70.06 156.17-156.17 0-86.12-70.06-156.18-156.17-156.18z m0 242.35c-47.52 0-86.17-38.66-86.17-86.17 0-47.52 38.66-86.17 86.17-86.17s86.17 38.66 86.17 86.17c0 47.51-38.65 86.17-86.17 86.17z"  horiz-adv-x="1024" />

    
    <glyph glyph-name="yingxiaogongju" unicode="&#58929;" d="M768.62 42.98h-512.2c-61.51 0-111.56 50.04-111.56 111.56V548.83c0 61.51 50.04 111.56 111.56 111.56h512.2c61.51 0 111.56-50.04 111.56-111.56v-394.29c-0.01-61.51-50.05-111.56-111.56-111.56z m-512.2 547.41c-22.91 0-41.56-18.64-41.56-41.56v-394.29c0-22.91 18.64-41.56 41.56-41.56h512.2c22.91 0 41.56 18.64 41.56 41.56V548.83c0 22.91-18.64 41.56-41.56 41.56h-512.2zM422.42 332.22h-93.56c-19.33 0-35 15.67-35 35V500.63c0 19.33 15.67 35 35 35h93.56c19.33 0 35-15.67 35-35v-133.41c0-19.33-15.67-35-35-35z m-58.56 70h23.56v63.41h-23.56v-63.41zM696.17 332.22h-93.56c-19.33 0-35 15.67-35 35V500.63c0 19.33 15.67 35 35 35h93.56c19.33 0 35-15.67 35-35v-133.41c0-19.33-15.67-35-35-35z m-58.56 70h23.56v63.41h-23.56v-63.41zM679.71 590.39c-19.33 0-35 15.67-35 35V726.25c0 6.55-5.33 11.88-11.88 11.88H392.2c-6.55 0-11.88-5.33-11.88-11.88V625.4c0-19.33-15.67-35-35-35s-35 15.67-35 35V726.25c0 45.15 36.73 81.88 81.88 81.88h240.64c45.15 0 81.88-36.73 81.88-81.88V625.4c-0.01-19.34-15.68-35.01-35.01-35.01zM328.86 405.86h-149c-19.33 0-35 15.67-35 35s15.67 35 35 35h149c19.33 0 35-15.67 35-35s-15.67-35-35-35zM845.18 405.86h-149c-19.33 0-35 15.67-35 35s15.67 35 35 35h149c19.33 0 35-15.67 35-35s-15.67-35-35-35zM602.61 405.86H422.42c-19.33 0-35 15.67-35 35s15.67 35 35 35h180.19c19.33 0 35-15.67 35-35s-15.67-35-35-35z"  horiz-adv-x="1024" />

    
    <glyph glyph-name="yingxiaohuodong" unicode="&#58930;" d="M746.73 23.28H283.35c-53.8 0-97.57 43.77-97.57 97.57V429.76c0 19.33 15.67 35 35 35s35-15.67 35-35v-308.92c0-15.2 12.37-27.57 27.57-27.57h463.38c15.2 0 27.57 12.37 27.57 27.57V429.76c0 19.33 15.67 35 35 35s35-15.67 35-35v-308.92c-0.01-53.79-43.77-97.56-97.57-97.56zM830.76 394.76H199.31c-55.95 0-101.48 45.52-101.48 101.48s45.52 101.48 101.48 101.48h631.45c55.95 0 101.48-45.52 101.48-101.48s-45.53-101.48-101.48-101.48zM199.31 527.72c-17.36 0-31.48-14.12-31.48-31.48s14.12-31.48 31.48-31.48h631.45c17.36 0 31.48 14.12 31.48 31.48s-14.12 31.48-31.48 31.48H199.31zM515.04 23.28c-19.33 0-35 15.67-35 35V562.72c0 19.33 15.67 35 35 35s35-15.67 35-35v-504.44c0-19.33-15.67-35-35-35zM514.62 527.71c-18.68 0-34.19 14.76-34.95 33.59-4.53 112.7 18.95 188.67 69.79 225.81 42.5 31.05 93.03 25.38 116.73 16.98 59.46-19.41 77.39-53.75 81.94-79.18 6.87-38.34-11.66-82.76-55.08-132.02-28.9-32.78-59.06-56.67-60.33-57.67-15.18-11.97-37.19-9.36-49.15 5.82-11.96 15.17-9.37 37.17 5.8 49.14 0.27 0.21 27.08 21.52 51.8 49.72 39.37 44.91 39.09 66.99 38.06 72.68-2.28 12.68-22.99 21.16-35.13 25.09-0.6 0.2-0.56 0.17-1.03 0.35-2.91 0.93-30.34 9.06-52.85-7.82-29.6-22.19-44.02-81.17-40.61-166.08 0.78-19.31-14.25-35.6-33.57-36.38-0.47-0.02-0.94-0.03-1.42-0.03z m128.29 210.38zM515.45 527.71c-0.48 0-0.95 0.01-1.43 0.03-19.31 0.78-34.34 17.06-33.57 36.38 3.44 85.46-11.18 144.58-41.14 166.48-23.15 16.91-51.87 7.59-52.15 7.49-0.4-0.15-0.8-0.28-1.2-0.41-12.14-3.93-32.85-12.41-35.13-25.1-1.03-5.75-1.29-28.03 38.69-73.39 24.75-28.08 50.89-48.78 51.15-48.99 15.18-11.97 17.79-33.97 5.82-49.15-11.97-15.18-33.97-17.79-49.15-5.82-1.27 1-31.43 24.89-60.33 57.67-43.42 49.26-61.96 93.68-55.08 132.02 4.56 25.43 22.49 59.77 81.94 79.18 23.71 8.4 74.23 14.06 116.73-16.98 50.84-37.14 74.32-113.11 69.79-225.81-0.75-18.83-16.26-33.59-34.94-33.6z"  horiz-adv-x="1024" />

    
    <glyph glyph-name="youjiantou" unicode="&#58931;" d="M328.9-14.89c-8.96 0-17.91 3.42-24.75 10.25-13.67 13.67-13.67 35.83 0 49.5l338.07 338.08-338.07 338.07c-13.67 13.67-13.67 35.83 0 49.5 13.67 13.67 35.83 13.67 49.5 0l362.82-362.82c13.67-13.67 13.67-35.83 0-49.5L353.65-4.64c-6.83-6.83-15.79-10.25-24.75-10.25z"  horiz-adv-x="1024" />

    
    <glyph glyph-name="zuojiantou" unicode="&#58932;" d="M691.72-14.89c-8.96 0-17.91 3.42-24.75 10.25L304.15 358.19c-13.67 13.67-13.67 35.83 0 49.5l362.82 362.82c13.67 13.67 35.83 13.67 49.5 0 13.67-13.67 13.67-35.83 0-49.5L378.4 382.93l338.07-338.08c13.67-13.67 13.67-35.83 0-49.5-6.83-6.82-15.79-10.24-24.75-10.24z"  horiz-adv-x="1024" />

    
    <glyph glyph-name="zhengyan" unicode="&#58933;" d="M513 52.8c-87.76 0-174.03 24.65-249.48 71.28-72.86 45.02-134.25 109.5-177.54 186.44-25.57 45.45-25.57 101.91 0 147.36 43.29 76.95 104.69 141.42 177.54 186.45 75.46 46.63 161.73 71.28 249.48 71.28 87.76 0 174.03-24.65 249.49-71.28 72.86-45.02 134.25-109.5 177.54-186.45 25.57-45.45 25.57-101.91 0-147.36-43.29-76.95-104.69-141.42-177.54-186.44C687.03 77.45 600.76 52.8 513 52.8z m0 592.81c-74.75 0-148.29-21.03-212.69-60.83-62.81-38.82-115.83-94.56-153.33-161.22-13.45-23.91-13.45-54.8 0-78.71 37.5-66.66 90.52-122.41 153.33-161.22 64.4-39.8 137.94-60.83 212.69-60.83s148.29 21.03 212.69 60.83c62.81 38.82 115.83 94.56 153.33 161.22 13.45 23.91 13.45 54.8 0 78.71-37.5 66.66-90.52 122.41-153.33 161.22-64.4 39.79-137.94 60.83-212.69 60.83zM116.48 440.72h0.01-0.01zM513 222.84c-88.98 0-161.36 72.39-161.36 161.36 0 88.98 72.39 161.36 161.36 161.36 88.98 0 161.36-72.39 161.36-161.36 0-88.97-72.38-161.36-161.36-161.36z m0 252.73c-50.38 0-91.36-40.99-91.36-91.36s40.99-91.36 91.36-91.36 91.36 40.99 91.36 91.36-40.98 91.36-91.36 91.36z"  horiz-adv-x="1024" />

    


  </font>
</defs>
</svg>
